<?xml version="1.0" encoding="UTF-8"?>
<svg id="uuid-76b1524d-5d5c-434e-9fa3-92e228310ab0" data-name="Capa 1" xmlns="http://www.w3.org/2000/svg" viewBox="0 0 595.28 841.89">
  <defs>
    <style>
      .uuid-4e38721b-afcb-47fb-8d4d-a88fec1eb59a {
        fill: #fff;
      }

      .uuid-3e5b9c8d-95b1-464c-8214-6bc04032d3e1 {
        fill: #89bd2b;
      }
    </style>
  </defs>
  <path class="uuid-4e38721b-afcb-47fb-8d4d-a88fec1eb59a" d="M255.08,338.67c-1.92,0-3.02,.37-3.56,2.76-3.85,16.94-7.95,33.82-11.98,50.71-.21,.04-.42,.07-.63,.11-4.63-17.74-9.25-35.48-13.89-53.28h-15.34c-3.26,11.84-6.6,23.55-9.63,35.33-.02,.1-.05,.2-.08,.29-.28,.93-.83,3.3-.83,3.3-1.18,4.58-2.29,8.88-3.4,13.18-.25,.03-.51,.06-.77,.1-1.03-4.27-2.05-8.54-3.19-13.27,0,0-.62-2.8-.75-3.4-2.48-11.06-5.23-22.05-7.99-33.05-.24-.96-1.24-2.43-1.92-2.46-5.42-.2-10.84-.11-16.55-.11,3.56,12.69,7,24.92,10.61,37.79-.48,0,.78,2.46,1.79,6.1,3.02,10.94,6.25,21.81,9.43,32.87,4.41,0,8.58-.16,12.74,.06,2.57,.14,3.72-.86,4.38-3.22,2.75-9.79,5.73-19.52,8.35-29.35,.93-3.49,2.3-6.88,3.33-11.03,.53-2.11,1.11-4.21,1.68-6.32,.22,0,.43,0,.65-.02,4.89,16.55,9.78,33.1,14.7,49.75h15.84c7.3-25.55,14.56-50.97,21.95-76.84-5.26,0-10.1,0-14.94,0h0Z"/>
  <path class="uuid-4e38721b-afcb-47fb-8d4d-a88fec1eb59a" d="M153.51,373.99c-3.74-10.82-7.64-21.58-11.28-32.43-.68-2.02-1.44-2.8-3.59-2.74-5.06,.14-10.14,.24-15.19-.06-2.79-.16-3.79,1.01-4.59,3.37-3.59,10.52-12.08,34.86-12.08,34.86-4.52,13.13-8.84,25.68-13.32,38.68,5.74,0,11.01,.08,16.26-.09,.72-.02,1.73-1.16,2.02-1.99,1.48-4.18,2.65-8.48,4.2-12.64,.44-1.18,1.76-2.87,2.71-2.9,8.46-.23,16.93-.13,25.5-.13,2.06,5.97,4.05,11.78,6.05,17.59h17.57c-4.36-12.7-14-40.73-14.27-41.51h0Zm-32.22,10.94c.79-2.31,2.78-8.75,2.78-8.75,2.21-6.89,4.26-13.29,6.3-19.68,.22,.03,.45,.07,.67,.1,2.02,6.4,4.04,12.79,6.17,19.57,0,0,2.29,7.01,2.88,8.75h-18.81Z"/>
  <path class="uuid-4e38721b-afcb-47fb-8d4d-a88fec1eb59a" d="M62.77,373.6c-.28-.66,.34-1.98,.93-2.71,3.94-4.91,7.97-9.76,12-14.61,4.77-5.73,9.57-11.42,14.59-17.41-6.43,0-12.65-.02-18.88,.04-.51,0-1.15,.45-1.5,.88-6.02,7.28-12,14.58-18.01,21.87-2.92,3.54-5.89,7.05-8.83,10.57-.26-.11-.52-.23-.78-.34v-32.81H25.69v76.49h16.77c0-5.54,.46-10.86-.11-16.06-.77-6.98,4.08-10.42,7.78-14.96,6.52,9.76,12.77,19.2,19.13,28.55,.75,1.11,2.14,2.46,3.29,2.51,5.82,.25,11.65,.12,18.32,.12-9.01-13.32-17.6-26-26.21-38.73,0,0-1.68-2.88-1.9-3.39h0Z"/>
  <path class="uuid-4e38721b-afcb-47fb-8d4d-a88fec1eb59a" d="M559.45,414.9c-6.31,0-12.21,.12-18.1-.12-1.01-.04-2.18-1.47-2.89-2.52-6.37-9.38-12.66-18.82-19.21-28.6-3.86,4.6-8.83,8.05-7.98,15.2,.6,5.1,.12,10.32,.12,15.75h-16.43v-76.2h16.3v33.01c.24,.08,.48,.17,.72,.25,3.02-3.55,6.1-7.06,9.07-10.65,4.54-5.51,9-11.09,13.52-16.62,1.34-1.65,2.67-3.33,4.18-4.81,.73-.72,1.87-1.41,2.84-1.43,5.82-.13,11.65-.07,17.88-.07-8.21,9.79-16.17,19.28-24.12,28.76-.21,.25-.45,.48-.64,.75-3.62,5.12-3.64,5.14,.26,10.92,7.5,11.12,15.05,22.2,22.57,33.31,.59,.87,1.12,1.78,1.92,3.06h0Z"/>
  <path class="uuid-4e38721b-afcb-47fb-8d4d-a88fec1eb59a" d="M462.09,397.09c-8.67,0-17.23-.04-25.8,.08-.73,0-1.82,.97-2.09,1.73-1.64,4.57-3.01,9.24-4.69,13.79-.35,.94-1.61,2.13-2.5,2.17-5.05,.21-10.1,.1-15.61,.1,6.92-20.12,24.94-73.9,26.47-75.98,.59-.8,16.22-.64,18.74-.77,1.82-.1,2.66,.52,3.27,2.3,5.2,15.35,10.5,30.68,15.81,46,2.79,8.05,5.65,16.08,8.44,24.13,.46,1.33,.75,2.71,1.17,4.29h-17.32c-1.97-5.96-3.91-11.84-5.88-17.83h0Zm-4.08-12.8c-3.19-9.75-6.3-19.2-9.56-29.14-3.3,10.09-6.4,19.55-9.54,29.14h19.09Z"/>
  <path class="uuid-4e38721b-afcb-47fb-8d4d-a88fec1eb59a" d="M266.59,414.89c3.74-10.8,7.32-21.12,10.9-31.44,3.71-10.7,7.43-21.39,11.15-32.08,1.31-3.76,2.57-7.56,4.07-11.25,.34-.82,1.61-1.76,2.47-1.78,5.72-.17,11.45-.03,17.17-.16,2.08-.05,2.39,1.19,2.92,2.73,5.19,15.2,10.45,30.38,15.7,45.56,2.95,8.56,5.9,17.13,8.84,25.69,.28,.82,.47,1.66,.74,2.63h-17.18c-1.96-5.78-3.95-11.66-5.96-17.6-8.54,0-17.01-.07-25.48,.11-.93,.02-2.25,1.39-2.65,2.41-1.63,4.23-2.85,8.61-4.49,12.83-.38,.99-1.78,2.2-2.75,2.24-4.93,.23-9.89,.1-15.46,.1h0Zm27.75-30.64h18.94c-3.13-9.76-6.17-19.2-9.2-28.65-.22,.05-.45,.1-.67,.14-3,9.43-6,18.87-9.07,28.5h0Z"/>
  <path class="uuid-4e38721b-afcb-47fb-8d4d-a88fec1eb59a" d="M345.61,390.61h15.28c.9,2.12,1.43,4.53,2.77,6.34,5.35,7.21,17.58,6.77,23.67,2.14,4.14-3.15,4.52-10.76-2.4-13.15-6.89-2.39-14.1-3.86-21.03-6.14-7.13-2.34-13.46-6.26-15.48-14-2.48-9.48,.77-18.97,10.46-24.23,11.78-6.4,23.84-6.47,35.74-.22,7.3,3.83,10.3,10.42,11.04,18.57h-15.5c-1.58-6.12-5.48-9.14-11.95-9.04-2.59,.04-5.28,.08-7.73,.8-4.23,1.24-5.77,3.5-5.79,7.23-.02,3.92,1.54,6.36,5.67,7.69,5.52,1.77,11.19,3.05,16.74,4.72,6.64,1.99,12.78,4.87,16.66,11.03,4.05,6.43,3.88,18.44-2.25,24.59-5.5,5.51-12.03,7.92-19.7,8.81-8.39,.97-16.26-.02-23.62-3.84-6.93-3.59-11.32-9.31-12.06-17.38-.06-.63-.42-1.23-.52-1.86-.09-.62-.02-1.26-.02-2.05h0Z"/>
  <path class="uuid-4e38721b-afcb-47fb-8d4d-a88fec1eb59a" d="M583.96,414.73h-16.41v-76.39h16.41v76.39Z"/>
  <g>
    <polygon class="uuid-3e5b9c8d-95b1-464c-8214-6bc04032d3e1" points="117.15 452.88 101.87 452.88 101.87 437.32 92.5 437.32 92.5 476.08 101.87 476.08 101.87 460.5 117.15 460.5 117.15 476.08 126.5 476.08 126.5 437.32 117.15 437.32 117.15 452.88"/>
    <path class="uuid-3e5b9c8d-95b1-464c-8214-6bc04032d3e1" d="M155.79,450.45c-1.25-1.26-2.73-2.21-4.45-2.86-1.72-.64-3.61-.97-5.68-.97-2.93,0-5.47,.63-7.63,1.88-2.16,1.26-3.83,3.01-5.02,5.26-1.19,2.25-1.78,4.88-1.78,7.88s.59,5.76,1.77,8c1.18,2.24,2.87,3.96,5.07,5.17,2.2,1.21,4.82,1.81,7.86,1.81,2.54,0,4.77-.39,6.7-1.16,1.93-.78,3.49-1.87,4.68-3.27,1.19-1.41,1.96-3.06,2.32-4.97l-8.5-.25c-.24,.64-.6,1.19-1.08,1.63-.48,.44-1.05,.78-1.72,1-.67,.23-1.41,.34-2.23,.34-1.19,0-2.21-.25-3.07-.74-.86-.49-1.52-1.18-1.99-2.07-.47-.89-.7-1.93-.7-3.11v-.25h19.38v-2.31c0-2.38-.35-4.5-1.04-6.35-.69-1.85-1.67-3.4-2.91-4.67Zm-15.41,7.95c.05-.93,.29-1.78,.74-2.53,.48-.79,1.13-1.41,1.95-1.87,.82-.46,1.75-.69,2.78-.69s1.93,.22,2.72,.65c.79,.44,1.41,1.04,1.86,1.81,.45,.77,.69,1.65,.7,2.63h-10.76Z"/>
    <path class="uuid-3e5b9c8d-95b1-464c-8214-6bc04032d3e1" d="M186.42,449.18c-1.16-.83-2.52-1.46-4.09-1.89-1.56-.44-3.27-.65-5.13-.65-2.6,0-4.82,.4-6.67,1.2-1.85,.8-3.3,1.9-4.35,3.29-1.05,1.39-1.71,2.97-1.96,4.74l8.54,.3c.2-.93,.67-1.67,1.42-2.2,.74-.53,1.73-.79,2.95-.79,1.14,0,2.04,.27,2.71,.79s1,1.28,1,2.25v.09c0,.59-.23,1.05-.69,1.37-.46,.32-1.2,.57-2.2,.74-1.01,.17-2.34,.33-3.99,.48-1.48,.13-2.86,.37-4.16,.73-1.3,.36-2.45,.89-3.44,1.58-1,.69-1.78,1.6-2.35,2.71s-.85,2.47-.85,4.09c0,1.92,.41,3.51,1.24,4.78s1.96,2.21,3.39,2.84c1.43,.62,3.08,.94,4.93,.94,1.35,0,2.56-.17,3.64-.51s2.02-.85,2.82-1.53c.8-.68,1.46-1.51,1.98-2.5h.23v4.05h8.71v-19.76c0-1.54-.32-2.91-.96-4.11-.64-1.2-1.54-2.21-2.7-3.04Zm-5.53,16.57c0,.95-.24,1.78-.72,2.49-.48,.71-1.12,1.27-1.92,1.67-.8,.4-1.7,.61-2.7,.61-1.06,0-1.93-.25-2.62-.76-.69-.5-1.03-1.24-1.03-2.2,0-.63,.16-1.18,.48-1.64,.32-.46,.79-.84,1.4-1.13,.61-.29,1.35-.5,2.22-.64,.43-.06,.88-.13,1.34-.21,.47-.08,.92-.16,1.36-.26,.44-.1,.85-.21,1.22-.32,.37-.11,.69-.24,.96-.38v2.76Z"/>
    <polygon class="uuid-3e5b9c8d-95b1-464c-8214-6bc04032d3e1" points="208.79 467.03 208.48 467.03 203.13 447.01 193.38 447.01 203.33 476.08 213.93 476.08 223.91 447.01 214.16 447.01 208.79 467.03"/>
    <path class="uuid-3e5b9c8d-95b1-464c-8214-6bc04032d3e1" d="M240.47,467.75h-.3l-5.36-20.74h-9.69l10.33,30.13-.36,.87c-.29,.72-.7,1.22-1.24,1.5-.54,.28-1.17,.4-1.91,.35-.74-.05-1.56-.23-2.47-.53l-2.04,6.72c.71,.28,1.55,.5,2.54,.67,.98,.17,2.03,.26,3.14,.26,2.22,0,4.09-.35,5.61-1.04,1.52-.69,2.76-1.65,3.73-2.87s1.71-2.62,2.24-4.21l10.96-31.85h-9.75l-5.43,20.74Z"/>
    <rect class="uuid-3e5b9c8d-95b1-464c-8214-6bc04032d3e1" x="270.65" y="437.32" width="9.37" height="38.76"/>
    <path class="uuid-3e5b9c8d-95b1-464c-8214-6bc04032d3e1" d="M309.18,448c-1.51-.91-3.28-1.37-5.33-1.37-2.15,0-3.99,.51-5.55,1.52-1.55,1.02-2.65,2.41-3.29,4.19h-.32v-5.34h-8.8v29.07h9.25v-16.58c.01-1.11,.22-2.06,.62-2.84,.4-.78,.97-1.38,1.7-1.81,.74-.42,1.59-.63,2.56-.63,1.46,0,2.61,.45,3.44,1.36,.83,.91,1.23,2.17,1.22,3.79v16.71h9.25v-18.53c.01-2.18-.4-4.09-1.24-5.73-.84-1.63-2.01-2.91-3.52-3.82Z"/>
    <path class="uuid-3e5b9c8d-95b1-464c-8214-6bc04032d3e1" d="M338.68,451.99h-.19c-.37-.88-.9-1.73-1.61-2.56-.71-.82-1.6-1.49-2.69-2.02-1.09-.52-2.39-.79-3.92-.79-2.03,0-3.93,.53-5.69,1.59-1.76,1.06-3.18,2.69-4.27,4.9-1.09,2.21-1.63,5.02-1.63,8.44s.52,6.05,1.57,8.27c1.05,2.22,2.45,3.89,4.2,5s3.7,1.67,5.85,1.67c1.46,0,2.73-.24,3.81-.72,1.08-.48,1.98-1.11,2.7-1.89,.72-.78,1.27-1.62,1.67-2.52h.28v4.71h9.16v-38.76h-9.25v14.67Zm-.44,13.65c-.43,1.16-1.04,2.06-1.84,2.7-.79,.64-1.75,.96-2.88,.96s-2.12-.32-2.9-.96c-.79-.64-1.39-1.54-1.81-2.7-.42-1.16-.62-2.52-.62-4.09s.2-2.92,.62-4.07c.41-1.15,1.01-2.04,1.81-2.67,.79-.63,1.77-.95,2.91-.95s2.08,.31,2.89,.93c.8,.62,1.41,1.5,1.84,2.65,.42,1.15,.63,2.52,.63,4.11s-.21,2.93-.64,4.09Z"/>
    <path class="uuid-3e5b9c8d-95b1-464c-8214-6bc04032d3e1" d="M372.55,463.53c0,1.12-.22,2.08-.65,2.87-.44,.79-1.02,1.39-1.76,1.8-.74,.41-1.57,.62-2.49,.62-1.41,0-2.53-.45-3.35-1.36-.82-.91-1.24-2.15-1.25-3.73v-16.71h-9.25v18.53c.01,2.2,.44,4.11,1.27,5.74,.83,1.63,2,2.91,3.5,3.81,1.5,.91,3.24,1.36,5.22,1.36,2.18,0,4.05-.52,5.59-1.56,1.55-1.04,2.64-2.45,3.28-4.23h.3v5.41h8.82v-29.07h-9.24v16.52Z"/>
    <path class="uuid-3e5b9c8d-95b1-464c-8214-6bc04032d3e1" d="M405.14,458.9l-5.6-1.06c-1.22-.25-2.07-.59-2.55-1-.47-.42-.7-.91-.69-1.48-.01-.73,.36-1.31,1.11-1.74,.75-.43,1.66-.64,2.73-.64,.82,0,1.54,.14,2.17,.41,.62,.27,1.13,.64,1.52,1.12,.39,.47,.63,1.01,.72,1.62l8.5-.23c-.24-2.88-1.5-5.14-3.77-6.79s-5.37-2.47-9.31-2.47c-2.62,0-4.9,.37-6.83,1.1-1.93,.73-3.42,1.79-4.47,3.17-1.05,1.38-1.56,3.04-1.55,4.99-.01,2.22,.69,4.05,2.12,5.48,1.43,1.43,3.6,2.41,6.51,2.94l5.07,.97c1.21,.23,2.1,.54,2.67,.94s.86,.92,.87,1.58c-.01,.73-.39,1.32-1.14,1.76-.74,.44-1.71,.66-2.9,.66-1.31,0-2.39-.28-3.24-.83-.85-.55-1.37-1.36-1.57-2.42l-9.14,.23c.34,2.88,1.71,5.17,4.1,6.88s5.66,2.56,9.81,2.56c2.6,0,4.91-.41,6.93-1.22,2.02-.81,3.61-1.96,4.78-3.44,1.17-1.48,1.76-3.21,1.77-5.2-.01-2.12-.73-3.82-2.15-5.11-1.42-1.29-3.58-2.21-6.48-2.76Z"/>
    <path class="uuid-3e5b9c8d-95b1-464c-8214-6bc04032d3e1" d="M432.95,469.16c-.4,.07-.77,.1-1.13,.1-.49,0-.91-.07-1.27-.22-.35-.15-.62-.39-.8-.74-.18-.35-.27-.8-.27-1.37v-13.12h5.24v-6.81h-5.24v-6.96h-9.25v6.96h-3.84v6.81h3.84v14.14c-.03,1.97,.37,3.6,1.18,4.9,.81,1.3,1.99,2.26,3.54,2.87,1.55,.61,3.4,.87,5.57,.77,1.11-.05,2.07-.17,2.87-.36,.8-.19,1.42-.35,1.86-.47l-1.4-6.68c-.2,.05-.5,.11-.9,.18Z"/>
    <path class="uuid-3e5b9c8d-95b1-464c-8214-6bc04032d3e1" d="M455.52,446.61c-1.59,0-2.98,.47-4.18,1.41-1.2,.94-2.06,2.37-2.59,4.29h-.3v-5.3h-8.99v29.07h9.26v-15.78c0-1.16,.25-2.17,.75-3.04,.5-.86,1.19-1.54,2.06-2.03,.88-.49,1.86-.73,2.96-.73,.55,0,1.19,.04,1.9,.13,.71,.09,1.29,.21,1.73,.36v-8.04c-.39-.11-.81-.2-1.27-.26-.45-.06-.9-.09-1.32-.09Z"/>
    <path class="uuid-3e5b9c8d-95b1-464c-8214-6bc04032d3e1" d="M466.54,434.78c-1.3,0-2.42,.43-3.35,1.3-.93,.86-1.4,1.9-1.4,3.11s.47,2.27,1.4,3.13c.93,.86,2.06,1.3,3.37,1.3s2.41-.43,3.34-1.3c.93-.86,1.39-1.9,1.39-3.11s-.46-2.27-1.39-3.13c-.93-.86-2.05-1.3-3.36-1.3Z"/>
    <rect class="uuid-3e5b9c8d-95b1-464c-8214-6bc04032d3e1" x="461.9" y="447.01" width="9.26" height="29.07"/>
    <path class="uuid-3e5b9c8d-95b1-464c-8214-6bc04032d3e1" d="M500.45,450.45c-1.25-1.26-2.73-2.21-4.45-2.86-1.72-.64-3.61-.97-5.68-.97-2.93,0-5.47,.63-7.63,1.88-2.16,1.26-3.83,3.01-5.02,5.26-1.19,2.25-1.78,4.88-1.78,7.88s.59,5.76,1.77,8c1.18,2.24,2.87,3.96,5.07,5.17,2.2,1.21,4.82,1.81,7.86,1.81,2.54,0,4.77-.39,6.7-1.16,1.93-.78,3.49-1.87,4.68-3.27,1.19-1.41,1.97-3.06,2.32-4.97l-8.5-.25c-.24,.64-.6,1.19-1.08,1.63s-1.05,.78-1.72,1-1.41,.34-2.23,.34c-1.19,0-2.21-.25-3.07-.74s-1.52-1.18-1.99-2.07-.7-1.93-.7-3.11v-.25h19.38v-2.31c0-2.38-.35-4.5-1.04-6.35-.69-1.85-1.67-3.4-2.91-4.67Zm-15.41,7.95c.05-.93,.29-1.78,.74-2.53,.48-.79,1.13-1.41,1.95-1.87,.82-.46,1.75-.69,2.78-.69s1.93,.22,2.72,.65c.79,.44,1.41,1.04,1.86,1.81,.45,.77,.69,1.65,.7,2.63h-10.76Z"/>
    <path class="uuid-3e5b9c8d-95b1-464c-8214-6bc04032d3e1" d="M533.11,461.66c-1.42-1.29-3.58-2.21-6.48-2.76l-5.6-1.06c-1.22-.25-2.07-.59-2.55-1-.47-.42-.7-.91-.69-1.48-.01-.73,.36-1.31,1.11-1.74,.75-.43,1.66-.64,2.73-.64,.82,0,1.54,.14,2.17,.41,.62,.27,1.13,.64,1.52,1.12,.39,.47,.63,1.01,.72,1.62l8.5-.23c-.24-2.88-1.5-5.14-3.77-6.79s-5.37-2.47-9.31-2.47c-2.62,0-4.9,.37-6.83,1.1-1.93,.73-3.42,1.79-4.47,3.17-1.05,1.38-1.56,3.04-1.55,4.99-.01,2.22,.69,4.05,2.12,5.48,1.43,1.43,3.6,2.41,6.51,2.94l5.07,.97c1.21,.23,2.1,.54,2.67,.94s.86,.92,.87,1.58c-.01,.73-.39,1.32-1.14,1.76-.74,.44-1.71,.66-2.9,.66-1.31,0-2.39-.28-3.24-.83-.85-.55-1.37-1.36-1.57-2.42l-9.14,.23c.34,2.88,1.71,5.17,4.1,6.88s5.66,2.56,9.81,2.56c2.6,0,4.91-.41,6.93-1.22,2.02-.81,3.61-1.96,4.78-3.44,1.17-1.48,1.76-3.21,1.77-5.2-.01-2.12-.73-3.82-2.15-5.11Z"/>
  </g>
</svg>