<?xml version="1.0" encoding="UTF-8"?>
<svg id="uuid-5846ba94-301a-46fb-b42f-ebc196474dc8" data-name="Capa 1" xmlns="http://www.w3.org/2000/svg" xmlns:xlink="http://www.w3.org/1999/xlink" viewBox="0 0 1342 190.8">
  <defs>
    <linearGradient id="uuid-8b78aba8-de69-4cd5-9a6a-f5865b797529" data-name="Degradado sin nombre" x1="333.82" y1="97.31" x2="587.33" y2="97.31" gradientUnits="userSpaceOnUse">
      <stop offset="0" stop-color="#fff"/>
      <stop offset="1" stop-color="#000"/>
    </linearGradient>
    <linearGradient id="uuid-1ea50ef6-f795-40cd-b687-fa04b129b8e9" data-name="Degradado sin nombre 51" x1="-11" y1="97.31" x2="1355" y2="97.31" gradientUnits="userSpaceOnUse">
      <stop offset="0" stop-color="#efffde"/>
      <stop offset="1" stop-color="#fff"/>
    </linearGradient>
    <linearGradient id="uuid-208a0206-29e5-41eb-868e-97c0916191a7" data-name="Degradado sin nombre" x1="162.91" y1="97.37" x2="341.56" y2="97.37" xlink:href="#uuid-8b78aba8-de69-4cd5-9a6a-f5865b797529"/>
    <linearGradient id="uuid-548928e4-d766-4a7d-875b-65db7ebe4420" data-name="Degradado sin nombre 51" y1="97.37" y2="97.37" xlink:href="#uuid-1ea50ef6-f795-40cd-b687-fa04b129b8e9"/>
    <linearGradient id="uuid-38eb59c1-d5ee-49e1-96e7-42b926493078" data-name="Degradado sin nombre" x1="0" y1="97.6" x2="156.69" y2="97.6" xlink:href="#uuid-8b78aba8-de69-4cd5-9a6a-f5865b797529"/>
    <linearGradient id="uuid-ce79280c-e335-4bfb-8eb4-b780c2e18a31" data-name="Degradado sin nombre 51" y1="97.6" x2="1355" y2="97.6" xlink:href="#uuid-1ea50ef6-f795-40cd-b687-fa04b129b8e9"/>
    <linearGradient id="uuid-9f8bdfe9-5ce0-46f9-8bc7-a7f076465ac7" data-name="Degradado sin nombre" x1="1128.03" y1="95.69" x2="1283.11" y2="95.69" xlink:href="#uuid-8b78aba8-de69-4cd5-9a6a-f5865b797529"/>
    <linearGradient id="uuid-83b870d5-4a12-4584-bd37-6508c9e115d3" data-name="Degradado sin nombre 51" y1="95.69" y2="95.69" xlink:href="#uuid-1ea50ef6-f795-40cd-b687-fa04b129b8e9"/>
    <linearGradient id="uuid-5d6c78f0-2d3f-4dd2-9449-d8a0455a8ccd" data-name="Degradado sin nombre" x1="927.19" y1="95.85" x2="1104.82" y2="95.85" xlink:href="#uuid-8b78aba8-de69-4cd5-9a6a-f5865b797529"/>
    <linearGradient id="uuid-7af64163-3982-4fa0-9170-397344e62f7f" data-name="Degradado sin nombre 51" y1="95.85" y2="95.85" xlink:href="#uuid-1ea50ef6-f795-40cd-b687-fa04b129b8e9"/>
    <linearGradient id="uuid-b7442683-03da-4d8c-b24c-cffbfa37a2dd" data-name="Degradado sin nombre" x1="579.07" y1="95.76" x2="756.9" y2="95.76" xlink:href="#uuid-8b78aba8-de69-4cd5-9a6a-f5865b797529"/>
    <linearGradient id="uuid-ce8720bf-cbf8-4583-a3ec-1e7a0941ba20" data-name="Degradado sin nombre 51" y1="95.76" y2="95.76" xlink:href="#uuid-1ea50ef6-f795-40cd-b687-fa04b129b8e9"/>
    <linearGradient id="uuid-359b1b47-50d5-4094-90fc-620f618ea36f" data-name="Degradado sin nombre" x1="768.98" y1="95.4" x2="915.46" y2="95.4" xlink:href="#uuid-8b78aba8-de69-4cd5-9a6a-f5865b797529"/>
    <linearGradient id="uuid-3128fb2f-c562-41ea-959a-0aa492140be4" data-name="Degradado sin nombre 51" x1="-11" y1="95.4" x2="1355" y2="95.4" xlink:href="#uuid-1ea50ef6-f795-40cd-b687-fa04b129b8e9"/>
    <linearGradient id="uuid-582830c5-9452-41cf-be36-0f5b3b574c37" data-name="Degradado sin nombre" x1="1302.56" y1="95.73" x2="1342" y2="95.73" xlink:href="#uuid-8b78aba8-de69-4cd5-9a6a-f5865b797529"/>
    <linearGradient id="uuid-66f83d1d-e6f1-476a-8cf2-4c3ae68c1952" data-name="Degradado sin nombre 51" y1="95.73" y2="95.73" xlink:href="#uuid-1ea50ef6-f795-40cd-b687-fa04b129b8e9"/>
  </defs>
  <path d="M551.41,4.72c-4.61-.01-7.25,.89-8.55,6.64-9.25,40.71-19.12,81.29-28.8,121.9-.5,.09-1.01,.17-1.51,.26-11.12-42.64-22.24-85.29-33.4-128.08h-36.88c-7.83,28.46-15.86,56.6-23.16,84.93-.06,.24-.13,.47-.2,.7-.68,2.24-2,7.94-2,7.94-2.84,11.01-5.51,21.34-8.18,31.68-.61,.08-1.23,.15-1.84,.23-2.47-10.26-4.93-20.53-7.66-31.9,0,0-1.48-6.72-1.8-8.17-5.97-26.58-12.58-53.01-19.2-79.44-.58-2.3-2.97-5.85-4.62-5.91-13.02-.49-26.06-.27-39.79-.27,8.56,30.5,16.82,59.91,25.5,90.83-1.16,0,1.88,5.91,4.3,14.67,7.27,26.29,15.02,52.44,22.68,79.02,10.59,0,20.63-.39,30.63,.14,6.17,.33,8.95-2.06,10.54-7.74,6.6-23.54,13.78-46.93,20.07-70.55,2.24-8.39,5.53-16.55,8.01-26.52,1.27-5.08,2.68-10.13,4.03-15.19,.52-.01,1.04-.02,1.56-.04,11.75,39.79,23.51,79.57,35.33,119.6h38.08c17.55-61.43,35-122.53,52.76-184.71-12.65,0-24.29,.02-35.92,0Z" fill="url(#uuid-8b78aba8-de69-4cd5-9a6a-f5865b797529)"/>
  <path d="M551.41,4.72c-4.61-.01-7.25,.89-8.55,6.64-9.25,40.71-19.12,81.29-28.8,121.9-.5,.09-1.01,.17-1.51,.26-11.12-42.64-22.24-85.29-33.4-128.08h-36.88c-7.83,28.46-15.86,56.6-23.16,84.93-.06,.24-.13,.47-.2,.7-.68,2.24-2,7.94-2,7.94-2.84,11.01-5.51,21.34-8.18,31.68-.61,.08-1.23,.15-1.84,.23-2.47-10.26-4.93-20.53-7.66-31.9,0,0-1.48-6.72-1.8-8.17-5.97-26.58-12.58-53.01-19.2-79.44-.58-2.3-2.97-5.85-4.62-5.91-13.02-.49-26.06-.27-39.79-.27,8.56,30.5,16.82,59.91,25.5,90.83-1.16,0,1.88,5.91,4.3,14.67,7.27,26.29,15.02,52.44,22.68,79.02,10.59,0,20.63-.39,30.63,.14,6.17,.33,8.95-2.06,10.54-7.74,6.6-23.54,13.78-46.93,20.07-70.55,2.24-8.39,5.53-16.55,8.01-26.52,1.27-5.08,2.68-10.13,4.03-15.19,.52-.01,1.04-.02,1.56-.04,11.75,39.79,23.51,79.57,35.33,119.6h38.08c17.55-61.43,35-122.53,52.76-184.71-12.65,0-24.29,.02-35.92,0Z" fill="url(#uuid-1ea50ef6-f795-40cd-b687-fa04b129b8e9)"/>
  <path d="M280.14,11.66c-1.63-4.86-3.46-6.73-8.63-6.58-12.16,.34-24.38,.57-36.51-.15-6.7-.39-9.1,2.43-11.03,8.09-8.64,25.3-29.04,83.79-29.04,83.79-10.87,31.57-21.25,61.74-32.01,92.98,13.81,0,26.46,.19,39.08-.22,1.72-.06,4.16-2.79,4.86-4.79,3.56-10.06,6.37-20.39,10.09-30.39,1.06-2.84,4.23-6.9,6.52-6.96,20.33-.55,40.69-.32,61.3-.32,4.94,14.35,9.74,28.31,14.55,42.29h42.23c-10.48-30.53-33.65-97.92-34.3-99.79-8.99-26.01-18.36-51.88-27.12-77.96Zm-50.33,104.24c1.9-5.56,6.69-21.03,6.69-21.03,5.31-16.57,10.23-31.94,15.15-47.3,.54,.08,1.07,.17,1.61,.25,4.85,15.38,9.7,30.75,14.84,47.05,0,0,5.5,16.84,6.92,21.03h-45.21Z" fill="url(#uuid-208a0206-29e5-41eb-868e-97c0916191a7)"/>
  <path d="M280.14,11.66c-1.63-4.86-3.46-6.73-8.63-6.58-12.16,.34-24.38,.57-36.51-.15-6.7-.39-9.1,2.43-11.03,8.09-8.64,25.3-29.04,83.79-29.04,83.79-10.87,31.57-21.25,61.74-32.01,92.98,13.81,0,26.46,.19,39.08-.22,1.72-.06,4.16-2.79,4.86-4.79,3.56-10.06,6.37-20.39,10.09-30.39,1.06-2.84,4.23-6.9,6.52-6.96,20.33-.55,40.69-.32,61.3-.32,4.94,14.35,9.74,28.31,14.55,42.29h42.23c-10.48-30.53-33.65-97.92-34.3-99.79-8.99-26.01-18.36-51.88-27.12-77.96Zm-50.33,104.24c1.9-5.56,6.69-21.03,6.69-21.03,5.31-16.57,10.23-31.94,15.15-47.3,.54,.08,1.07,.17,1.61,.25,4.85,15.38,9.7,30.75,14.84,47.05,0,0,5.5,16.84,6.92,21.03h-45.21Z" fill="url(#uuid-548928e4-d766-4a7d-875b-65db7ebe4420)"/>
  <path d="M89.12,88.68c-.68-1.59,.82-4.75,2.24-6.52,9.48-11.81,19.15-23.47,28.84-35.11,11.46-13.77,23-27.46,35.07-41.86-15.45,0-30.42-.05-45.38,.09-1.23,.01-2.76,1.09-3.61,2.12-14.48,17.49-28.85,35.06-43.29,52.58-7.02,8.51-14.15,16.94-21.22,25.41-.63-.27-1.25-.55-1.88-.82V5.69H0V189.55H40.32c0-13.32,1.1-26.1-.27-38.61-1.84-16.78,9.8-25.04,18.71-35.97,15.67,23.47,30.69,46.15,45.99,68.63,1.81,2.66,5.15,5.92,7.91,6.04,13.99,.61,28.01,.28,44.03,.28-21.67-32.02-42.3-62.51-63.01-93.11,0,0-4.03-6.92-4.56-8.14Z" fill="url(#uuid-38eb59c1-d5ee-49e1-96e7-42b926493078)"/>
  <path d="M89.12,88.68c-.68-1.59,.82-4.75,2.24-6.52,9.48-11.81,19.15-23.47,28.84-35.11,11.46-13.77,23-27.46,35.07-41.86-15.45,0-30.42-.05-45.38,.09-1.23,.01-2.76,1.09-3.61,2.12-14.48,17.49-28.85,35.06-43.29,52.58-7.02,8.51-14.15,16.94-21.22,25.41-.63-.27-1.25-.55-1.88-.82V5.69H0V189.55H40.32c0-13.32,1.1-26.1-.27-38.61-1.84-16.78,9.8-25.04,18.71-35.97,15.67,23.47,30.69,46.15,45.99,68.63,1.81,2.66,5.15,5.92,7.91,6.04,13.99,.61,28.01,.28,44.03,.28-21.67-32.02-42.3-62.51-63.01-93.11,0,0-4.03-6.92-4.56-8.14Z" fill="url(#uuid-ce79280c-e335-4bfb-8eb4-b780c2e18a31)"/>
  <path d="M1225.14,72.5c19.11-22.79,38.23-45.58,57.97-69.13-14.97,0-28.98-.16-42.98,.16-2.33,.05-5.07,1.71-6.82,3.43-3.64,3.56-6.82,7.61-10.06,11.57-10.86,13.3-21.57,26.7-32.49,39.95-7.13,8.65-14.52,17.08-21.8,25.61-.58-.2-1.16-.41-1.74-.61V4.12h-39.18V187.3h39.5c0-13.06,1.17-25.62-.28-37.87-2.03-17.19,9.92-25.49,19.19-36.54,15.74,23.5,30.86,46.19,46.18,68.74,1.71,2.52,4.52,5.95,6.94,6.05,14.16,.57,28.35,.28,43.52,.28-1.92-3.08-3.2-5.26-4.61-7.35-18.08-26.69-36.21-53.35-54.25-80.07-9.38-13.88-9.32-13.93-.62-26.24,.45-.64,1.04-1.19,1.55-1.8Z" fill="url(#uuid-9f8bdfe9-5ce0-46f9-8bc7-a7f076465ac7)"/>
  <path d="M1225.14,72.5c19.11-22.79,38.23-45.58,57.97-69.13-14.97,0-28.98-.16-42.98,.16-2.33,.05-5.07,1.71-6.82,3.43-3.64,3.56-6.82,7.61-10.06,11.57-10.86,13.3-21.57,26.7-32.49,39.95-7.13,8.65-14.52,17.08-21.8,25.61-.58-.2-1.16-.41-1.74-.61V4.12h-39.18V187.3h39.5c0-13.06,1.17-25.62-.28-37.87-2.03-17.19,9.92-25.49,19.19-36.54,15.74,23.5,30.86,46.19,46.18,68.74,1.71,2.52,4.52,5.95,6.94,6.05,14.16,.57,28.35,.28,43.52,.28-1.92-3.08-3.2-5.26-4.61-7.35-18.08-26.69-36.21-53.35-54.25-80.07-9.38-13.88-9.32-13.93-.62-26.24,.45-.64,1.04-1.19,1.55-1.8Z" fill="url(#uuid-83b870d5-4a12-4584-bd37-6508c9e115d3)"/>
  <path d="M1081.72,119.69c-12.74-36.83-25.49-73.66-38-110.57-1.45-4.28-3.48-5.77-7.85-5.54-6.08,.33-43.66-.06-45.06,1.86-3.66,5-46.98,134.28-63.62,182.65,13.23,0,25.39,.26,37.52-.24,2.13-.09,5.19-2.96,6.02-5.22,4.04-10.94,7.32-22.17,11.27-33.15,.65-1.81,3.28-4.12,5.03-4.15,20.59-.29,41.18-.19,62.02-.19,4.75,14.39,9.42,28.53,14.14,42.85h41.64c-1.03-3.79-1.72-7.13-2.82-10.32-6.71-19.35-13.58-38.64-20.28-58Zm-88.39-5.3c7.54-23.05,14.99-45.79,22.93-70.05,7.84,23.89,15.29,46.62,22.97,70.05h-45.9Z" fill="url(#uuid-5d6c78f0-2d3f-4dd2-9449-d8a0455a8ccd)"/>
  <path d="M1081.72,119.69c-12.74-36.83-25.49-73.66-38-110.57-1.45-4.28-3.48-5.77-7.85-5.54-6.08,.33-43.66-.06-45.06,1.86-3.66,5-46.98,134.28-63.62,182.65,13.23,0,25.39,.26,37.52-.24,2.13-.09,5.19-2.96,6.02-5.22,4.04-10.94,7.32-22.17,11.27-33.15,.65-1.81,3.28-4.12,5.03-4.15,20.59-.29,41.18-.19,62.02-.19,4.75,14.39,9.42,28.53,14.14,42.85h41.64c-1.03-3.79-1.72-7.13-2.82-10.32-6.71-19.35-13.58-38.64-20.28-58Zm-88.39-5.3c7.54-23.05,14.99-45.79,22.93-70.05,7.84,23.89,15.29,46.62,22.97,70.05h-45.9Z" fill="url(#uuid-7af64163-3982-4fa0-9170-397344e62f7f)"/>
  <path d="M733.85,119.6c-12.59-36.5-25.25-72.98-37.73-109.52-1.26-3.7-2.03-6.66-7.02-6.56-13.76,.3-27.53-.03-41.28,.38-2.08,.06-5.13,2.32-5.94,4.29-3.62,8.87-6.64,17.98-9.79,27.04-8.96,25.7-17.89,51.4-26.81,77.11-8.61,24.8-17.2,49.61-26.21,75.58,13.39,0,25.29,.3,37.16-.25,2.35-.11,5.69-3.01,6.62-5.39,3.94-10.15,6.89-20.68,10.8-30.84,.95-2.47,4.15-5.75,6.37-5.8,20.35-.45,40.71-.26,61.24-.26,4.84,14.28,9.62,28.4,14.33,42.3h41.3c-.65-2.33-1.12-4.36-1.79-6.32-7.07-20.59-14.15-41.18-21.26-61.76Zm-88.08-5.33c7.37-23.17,14.59-45.85,21.8-68.52,.54-.11,1.07-.23,1.61-.34,7.29,22.7,14.58,45.4,22.12,68.86h-45.53Z" fill="url(#uuid-b7442683-03da-4d8c-b24c-cffbfa37a2dd)"/>
  <path d="M733.85,119.6c-12.59-36.5-25.25-72.98-37.73-109.52-1.26-3.7-2.03-6.66-7.02-6.56-13.76,.3-27.53-.03-41.28,.38-2.08,.06-5.13,2.32-5.94,4.29-3.62,8.87-6.64,17.98-9.79,27.04-8.96,25.7-17.89,51.4-26.81,77.11-8.61,24.8-17.2,49.61-26.21,75.58,13.39,0,25.29,.3,37.16-.25,2.35-.11,5.69-3.01,6.62-5.39,3.94-10.15,6.89-20.68,10.8-30.84,.95-2.47,4.15-5.75,6.37-5.8,20.35-.45,40.71-.26,61.24-.26,4.84,14.28,9.62,28.4,14.33,42.3h41.3c-.65-2.33-1.12-4.36-1.79-6.32-7.07-20.59-14.15-41.18-21.26-61.76Zm-88.08-5.33c7.37-23.17,14.59-45.85,21.8-68.52,.54-.11,1.07-.23,1.61-.34,7.29,22.7,14.58,45.4,22.12,68.86h-45.53Z" fill="url(#uuid-ce8720bf-cbf8-4583-a3ec-1e7a0941ba20)"/>
  <path d="M868.8,83.16c-13.35-4-26.98-7.1-40.24-11.35-9.93-3.18-13.66-9.06-13.62-18.49,.04-8.96,3.75-14.4,13.91-17.37,5.89-1.72,12.37-1.83,18.59-1.92,15.55-.24,24.92,7.04,28.72,21.73h37.25c-1.79-19.59-9-35.42-26.55-44.63-28.62-15.03-57.6-14.84-85.92,.54-23.28,12.64-31.1,35.45-25.14,58.24,4.86,18.6,20.07,28.01,37.22,33.65,16.67,5.48,33.99,9.02,50.56,14.77,16.63,5.76,15.71,24.05,5.76,31.62-14.63,11.13-44.04,12.2-56.89-5.14-3.22-4.35-4.5-10.14-6.66-15.24h-36.73c0,1.89-.17,3.43,.05,4.92,.23,1.52,1.1,2.96,1.24,4.48,1.78,19.41,12.33,33.16,28.98,41.78,17.7,9.17,36.63,11.57,56.79,9.23,18.44-2.14,34.15-7.93,47.36-21.18,14.73-14.78,15.12-43.66,5.4-59.11-9.33-14.81-24.1-21.73-40.06-26.52Z" fill="url(#uuid-359b1b47-50d5-4094-90fc-620f618ea36f)"/>
  <path d="M868.8,83.16c-13.35-4-26.98-7.1-40.24-11.35-9.93-3.18-13.66-9.06-13.62-18.49,.04-8.96,3.75-14.4,13.91-17.37,5.89-1.72,12.37-1.83,18.59-1.92,15.55-.24,24.92,7.04,28.72,21.73h37.25c-1.79-19.59-9-35.42-26.55-44.63-28.62-15.03-57.6-14.84-85.92,.54-23.28,12.64-31.1,35.45-25.14,58.24,4.86,18.6,20.07,28.01,37.22,33.65,16.67,5.48,33.99,9.02,50.56,14.77,16.63,5.76,15.71,24.05,5.76,31.62-14.63,11.13-44.04,12.2-56.89-5.14-3.22-4.35-4.5-10.14-6.66-15.24h-36.73c0,1.89-.17,3.43,.05,4.92,.23,1.52,1.1,2.96,1.24,4.48,1.78,19.41,12.33,33.16,28.98,41.78,17.7,9.17,36.63,11.57,56.79,9.23,18.44-2.14,34.15-7.93,47.36-21.18,14.73-14.78,15.12-43.66,5.4-59.11-9.33-14.81-24.1-21.73-40.06-26.52Z" fill="url(#uuid-3128fb2f-c562-41ea-959a-0aa492140be4)"/>
  <path d="M1302.56,187.54h39.44V3.91h-39.44V187.54Z" fill="url(#uuid-582830c5-9452-41cf-be36-0f5b3b574c37)"/>
  <path d="M1302.56,187.54h39.44V3.91h-39.44V187.54Z" fill="url(#uuid-66f83d1d-e6f1-476a-8cf2-4c3ae68c1952)"/>
</svg>