<?xml version="1.0" encoding="UTF-8"?>
<svg id="uuid-0f8e983a-798e-48a4-9a3f-478b76753a1a" data-name="Capa 1" xmlns="http://www.w3.org/2000/svg" viewBox="0 0 1342 190.8">
  <path d="M551.41,4.72c-4.61-.01-7.25,.89-8.55,6.64-9.25,40.71-19.12,81.29-28.8,121.9-.5,.09-1.01,.17-1.51,.26-11.12-42.64-22.24-85.29-33.4-128.08h-36.88c-7.83,28.46-15.86,56.6-23.16,84.93-.06,.24-.13,.47-.2,.7-.68,2.24-2,7.94-2,7.94-2.84,11.01-5.51,21.34-8.18,31.68-.61,.08-1.23,.15-1.84,.23-2.47-10.26-4.93-20.53-7.66-31.9,0,0-1.48-6.72-1.8-8.17-5.97-26.58-12.58-53.01-19.2-79.44-.58-2.3-2.97-5.85-4.62-5.91-13.02-.49-26.06-.27-39.79-.27,8.56,30.5,16.82,59.91,25.5,90.83-1.16,0,1.88,5.91,4.3,14.67,7.27,26.29,15.02,52.44,22.68,79.02,10.59,0,20.63-.39,30.63,.14,6.17,.33,8.95-2.06,10.54-7.74,6.6-23.54,13.78-46.93,20.07-70.55,2.24-8.39,5.53-16.55,8.01-26.52,1.27-5.08,2.68-10.13,4.03-15.19,.52-.01,1.04-.02,1.56-.04,11.75,39.79,23.51,79.57,35.33,119.6h38.08c17.55-61.43,35-122.53,52.76-184.71-12.65,0-24.29,.02-35.92,0Z" fill="#fff"/>
  <path d="M307.26,89.62c-8.99-26.01-18.36-51.88-27.12-77.96-1.63-4.86-3.46-6.73-8.63-6.58-12.16,.34-24.38,.57-36.51-.15-6.7-.39-9.1,2.43-11.03,8.09-8.64,25.3-29.04,83.79-29.04,83.79-10.87,31.57-21.25,61.74-32.01,92.98,13.81,0,26.46,.19,39.08-.22,1.72-.06,4.16-2.79,4.86-4.79,3.56-10.06,6.37-20.39,10.09-30.39,1.06-2.84,4.23-6.9,6.52-6.96,20.33-.55,40.69-.32,61.3-.32,4.94,14.35,9.74,28.31,14.55,42.29h42.23c-10.48-30.53-33.65-97.92-34.3-99.79Zm-77.45,26.28c1.9-5.56,6.69-21.03,6.69-21.03,5.31-16.57,10.23-31.94,15.15-47.3,.54,.08,1.07,.17,1.61,.25,4.85,15.38,9.7,30.75,14.84,47.05,0,0,5.5,16.84,6.92,21.03h-45.21Z" fill="#fff"/>
  <path d="M89.12,88.68c-.68-1.59,.82-4.75,2.24-6.52,9.48-11.81,19.15-23.47,28.84-35.11,11.46-13.77,23-27.46,35.07-41.86-15.45,0-30.42-.05-45.38,.09-1.23,.01-2.76,1.09-3.61,2.12-14.48,17.49-28.85,35.06-43.29,52.58-7.02,8.51-14.15,16.94-21.22,25.41-.63-.27-1.25-.55-1.88-.82V5.69H0V189.55H40.32c0-13.32,1.1-26.1-.27-38.61-1.84-16.78,9.8-25.04,18.71-35.97,15.67,23.47,30.69,46.15,45.99,68.63,1.81,2.66,5.15,5.92,7.91,6.04,13.99,.61,28.01,.28,44.03,.28-21.67-32.02-42.3-62.51-63.01-93.11,0,0-4.03-6.92-4.56-8.14Z" fill="#fff"/>
  <path d="M1283.07,187.96c-15.17,0-29.36,.29-43.52-.28-2.42-.1-5.23-3.53-6.94-6.05-15.32-22.55-30.44-45.24-46.18-68.74-9.28,11.05-21.23,19.35-19.19,36.54,1.45,12.25,.28,24.81,.28,37.87h-39.5V4.12h39.18V83.48c.58,.2,1.16,.41,1.74,.61,7.27-8.53,14.66-16.96,21.8-25.61,10.92-13.24,21.64-26.65,32.49-39.95,3.23-3.96,6.42-8,10.06-11.57,1.76-1.72,4.49-3.38,6.82-3.43,14-.32,28.01-.16,42.98-.16-19.74,23.54-38.86,46.34-57.97,69.13-.51,.61-1.09,1.16-1.55,1.8-8.69,12.31-8.76,12.36,.62,26.24,18.04,26.72,36.17,53.37,54.25,80.07,1.41,2.09,2.69,4.27,4.61,7.35Z" fill="#fff"/>
  <path d="M1049.04,145.15c-20.84,0-41.43-.1-62.02,.19-1.75,.02-4.38,2.34-5.03,4.15-3.95,10.98-7.23,22.2-11.27,33.15-.83,2.25-3.88,5.13-6.02,5.22-12.13,.5-24.29,.24-37.52,.24,16.64-48.36,59.95-177.65,63.62-182.65,1.41-1.92,38.98-1.53,45.06-1.86,4.37-.23,6.4,1.26,7.85,5.54,12.51,36.91,25.25,73.74,38,110.57,6.7,19.35,13.57,38.65,20.28,58,1.11,3.19,1.8,6.52,2.82,10.32h-41.64c-4.73-14.32-9.4-28.46-14.14-42.85Zm-9.81-30.76c-7.68-23.43-15.14-46.16-22.97-70.05-7.94,24.25-15.39,47-22.93,70.05h45.9Z" fill="#fff"/>
  <path d="M579.07,187.93c9-25.97,17.6-50.78,26.21-75.58,8.93-25.71,17.85-51.42,26.81-77.11,3.16-9.05,6.17-18.17,9.79-27.04,.81-1.97,3.86-4.23,5.94-4.29,13.75-.41,27.52-.08,41.28-.38,4.99-.11,5.75,2.86,7.02,6.56,12.48,36.54,25.13,73.02,37.73,109.52,7.1,20.58,14.19,41.17,21.26,61.76,.67,1.96,1.14,3.99,1.79,6.32h-41.3c-4.71-13.9-9.49-28.02-14.33-42.3-20.53,0-40.89-.18-61.24,.26-2.23,.05-5.42,3.33-6.37,5.8-3.91,10.16-6.86,20.69-10.8,30.84-.92,2.38-4.27,5.28-6.62,5.39-11.86,.55-23.77,.25-37.16,.25Zm66.7-73.66h45.53c-7.53-23.45-14.82-46.16-22.12-68.86-.54,.11-1.07,.23-1.61,.34-7.21,22.67-14.43,45.35-21.8,68.52Z" fill="#fff"/>
  <path d="M769.04,129.56h36.73c2.16,5.1,3.44,10.89,6.66,15.24,12.85,17.34,42.26,16.27,56.89,5.14,9.95-7.57,10.87-25.86-5.76-31.62-16.57-5.74-33.89-9.29-50.56-14.77-17.15-5.63-32.36-15.05-37.22-33.65-5.96-22.78,1.86-45.6,25.14-58.24,28.32-15.38,57.3-15.56,85.92-.54,17.55,9.21,24.76,25.04,26.55,44.63h-37.25c-3.8-14.7-13.17-21.97-28.72-21.73-6.22,.09-12.7,.2-18.59,1.92-10.16,2.97-13.87,8.42-13.91,17.37-.04,9.42,3.69,15.3,13.62,18.49,13.26,4.25,26.89,7.34,40.24,11.35,15.96,4.79,30.73,11.7,40.06,26.52,9.73,15.45,9.33,44.33-5.4,59.11-13.21,13.25-28.92,19.04-47.36,21.18-20.16,2.34-39.09-.06-56.79-9.23-16.65-8.62-27.2-22.37-28.98-41.78-.14-1.52-1.01-2.96-1.24-4.48-.22-1.49-.05-3.03-.05-4.92Z" fill="#fff"/>
  <path d="M1342,187.54h-39.44V3.91h39.44V187.54Z" fill="#fff"/>
</svg>