<?xml version="1.0" encoding="UTF-8"?>
<svg id="uuid-6bcbbcc3-e06d-481a-9cbf-bdae21c6cca0" data-name="Capa 3" xmlns="http://www.w3.org/2000/svg" xmlns:xlink="http://www.w3.org/1999/xlink" viewBox="0 0 300 100">
  <defs>
    <linearGradient id="uuid-e2a9870c-de42-4d28-9d56-51b3afeddc41" data-name="Degradado sin nombre 92" x1="43.79" y1="44.87" x2="1.19" y2="44.87" gradientUnits="userSpaceOnUse">
      <stop offset="0" stop-color="#ccc"/>
      <stop offset=".13" stop-color="#666565"/>
      <stop offset="1" stop-color="#212120"/>
    </linearGradient>
    <linearGradient id="uuid-b2f05847-c221-43e4-85bf-04ffe022c775" data-name="Degradado sin nombre 92" x1="65.51" y1="48.02" x2="27.51" y2="48.02" xlink:href="#uuid-e2a9870c-de42-4d28-9d56-51b3afeddc41"/>
    <linearGradient id="uuid-8430af8a-109a-4290-901b-8cd7f8fb0a7d" data-name="Degradado sin nombre 92" x1="96.83" y1="48.02" x2="57.08" y2="48.02" xlink:href="#uuid-e2a9870c-de42-4d28-9d56-51b3afeddc41"/>
    <linearGradient id="uuid-621834a2-b082-4ab6-b04e-6802b1dbb01b" data-name="Degradado sin nombre 92" x1="129.23" y1="48.02" x2="89.68" y2="48.02" xlink:href="#uuid-e2a9870c-de42-4d28-9d56-51b3afeddc41"/>
    <linearGradient id="uuid-96062bea-e03f-4720-b0f1-eb577f8c71ed" data-name="Degradado sin nombre 92" x1="193.04" y1="48.02" x2="153.49" y2="48.02" xlink:href="#uuid-e2a9870c-de42-4d28-9d56-51b3afeddc41"/>
    <linearGradient id="uuid-5a221ec4-b57a-42b3-9389-9b142ac89c1f" data-name="Degradado sin nombre 92" x1="162.15" y1="48.02" x2="127.45" y2="48.02" xlink:href="#uuid-e2a9870c-de42-4d28-9d56-51b3afeddc41"/>
    <linearGradient id="uuid-a2c2fef5-01c1-40ab-9eb1-5a055f3fbfe6" data-name="Degradado sin nombre 92" x1="234.24" y1="47.99" x2="195.38" y2="47.99" xlink:href="#uuid-e2a9870c-de42-4d28-9d56-51b3afeddc41"/>
    <linearGradient id="uuid-888b3e09-da6d-4279-8e8e-0f130346bb95" data-name="Degradado sin nombre 92" x1="267.4" y1="47.99" x2="227.32" y2="47.99" xlink:href="#uuid-e2a9870c-de42-4d28-9d56-51b3afeddc41"/>
    <linearGradient id="uuid-ae36f897-1fcc-4673-9ed0-1f18c82ebd8d" data-name="Degradado sin nombre 92" x1="298.64" y1="47.99" x2="259.33" y2="47.99" xlink:href="#uuid-e2a9870c-de42-4d28-9d56-51b3afeddc41"/>
  </defs>
  <path d="M1.53,33.96h7.96c.19,0,.34,.15,.34,.34l.17,16.69c0,.28,.33,.44,.55,.27l22.83-17.44c.06-.05,.14-.07,.22-.07l9.86,.29c.32,0,.45,.41,.21,.61l-26.39,21.26c-.06,.05-.14,.08-.22,.08H3.17c-.11,0-.22-.06-.28-.15-.29-.21-.7-.57-1.06-1.12-.33-.5-.49-.96-.58-1.29-.01-.02-.03-.05-.04-.09-.01-.03-.02-.07-.02-.1v-18.93c0-.19,.15-.34,.34-.34Z" fill="url(#uuid-e2a9870c-de42-4d28-9d56-51b3afeddc41)"/>
  <path d="M27.68,53.46l9.68-12.02s.07-.06,.12-.06h27.88c.13,0,.2,.15,.12,.25l-1.77,2.33s-.08,.06-.12,.06h-20.55s-.09,.02-.12,.06l-1.91,2.28c-.09,.1-.01,.26,.12,.26l15.3-.05c.14,0,.21,.16,.12,.26l-2.15,2.33s-.07,.05-.11,.05l-15.32,.1s-.08,.02-.11,.05l-2.15,2.29c-.09,.1-.02,.26,.11,.26l19.19,.15c.12,0,.19,.13,.14,.23l-1.21,2.28c-.03,.05-.08,.08-.14,.08H28.25c-.62,0-.97-.72-.58-1.21Z" fill="url(#uuid-b2f05847-c221-43e4-85bf-04ffe022c775)"/>
  <path d="M57.15,54.15l10.65-12.67c.06-.07,.15-.11,.24-.11h28.48c.26,0,.41,.3,.24,.51l-6.8,8.38c-.06,.07-.15,.11-.24,.11l-7.54,.09c-.29,0-.42,.36-.2,.55l3.68,3.1c.22,.19,.09,.55-.2,.55h-9.61c-.08,0-.15-.03-.21-.08l-4.76-4.37c-.13-.12-.13-.32-.01-.45l1.9-1.94c.06-.06,.14-.1,.23-.09,1.21,.04,10.22,.36,10.56,.29,.33-.07,2.61-1.96,3.16-2.42,.08-.06,.12-.16,.11-.26l-.07-1.04c-.01-.16-.15-.29-.31-.29l-12.7-.05c-.09,0-.18,.04-.24,.11l-8.92,10.48c-.06,.07-.15,.11-.24,.11h-6.97c-.26,0-.41-.31-.24-.51Z" fill="url(#uuid-8430af8a-109a-4290-901b-8cd7f8fb0a7d)"/>
  <path d="M128.67,41.38h-26.79c-.14,0-.27,.05-.37,.14l-6.62,5.89s-.34,.6-.05,1.16c.23,.45,.74,.71,1.27,.64,7.55-.09,14.87-.16,17.61-.09,.26,0,.49,.17,.55,.41,.08,.29-.13,.51-.15,.52-.14,.3-.59,.67-1.06,1.2-.11,.12-.26,.19-.42,.19h-20.95c-.18,0-.36,.09-.46,.24l-1.45,2.11c-.26,.37,.01,.88,.46,.88h26.65c.15,0,.3-.06,.41-.18l6.07-6.48c.33-.35,.09-.93-.4-.94l-18.36-.42c-.46-.01-.71-.53-.43-.9l1.18-1.56c.11-.14,.27-.22,.44-.22,2.52,0,21.71-.05,21.86-.05,.09,0,.85-.9,1.44-1.63,.3-.37,.04-.91-.43-.91Z" fill="url(#uuid-621834a2-b082-4ab6-b04e-6802b1dbb01b)"/>
  <path d="M192.48,41.38h-26.79c-.14,0-.27,.05-.37,.14l-6.62,5.89s-.34,.6-.05,1.16c.23,.45,.74,.71,1.27,.64,7.55-.09,14.87-.16,17.61-.09,.26,0,.49,.17,.55,.41,.08,.29-.13,.51-.15,.52-.14,.3-.59,.67-1.06,1.2-.11,.12-.26,.19-.42,.19h-20.95c-.18,0-.36,.09-.46,.24l-1.45,2.11c-.26,.37,.01,.88,.46,.88h26.65c.15,0,.3-.06,.41-.18l6.07-6.48c.33-.35,.09-.93-.4-.94l-18.36-.42c-.46-.01-.71-.53-.43-.9l1.18-1.56c.11-.14,.27-.22,.44-.22,2.52,0,21.71-.05,21.86-.05,.09,0,.85-.9,1.44-1.63,.3-.37,.04-.91-.43-.91Z" fill="url(#uuid-96062bea-e03f-4720-b0f1-eb577f8c71ed)"/>
  <path d="M131.81,41.49l-4.31,5.81c-.14,.18-.01,.44,.21,.45,1.96,.08,8.6,.34,8.46,.27s-3.74,4.52-4.89,5.99c-.14,.18-.01,.45,.22,.46l10.2,.2c.09,0,.17-.04,.22-.1l5.33-6.44c.05-.07,.13-.1,.22-.1h8.95c.08,0,.16-.03,.21-.1l5.42-6.07c.16-.18,.03-.47-.21-.47h-8.13c-.08,0-.16,.03-.21,.09l-3.17,3.44c-.05,.06-.13,.09-.21,.09h-12.2c-.24,0-.37-.28-.22-.46l2.17-2.7c.15-.19,.02-.46-.22-.46h-7.63c-.09,0-.17,.04-.23,.12Z" fill="url(#uuid-5a221ec4-b57a-42b3-9389-9b142ac89c1f)"/>
  <path d="M233.74,41.35c-4.43-.06-25.4,.01-27.81,.02-.15,0-.28,.07-.38,.18l-10.04,11.65c-.28,.33-.06,.84,.38,.85l28.45,.61c.17,0,.32-.07,.42-.2l5.99-7.91c.26-.34,.01-.83-.41-.83h-23.32l1.54-1.54c.1-.1,.23-.15,.36-.15l18.39-.1c.36,0,.6,.36,.48,.69-.03,.08-.03,.14,.03,.15,.18,.04,3.48,.18,4.55,.22,.2,0,.38-.1,.48-.28l1.33-2.6c.17-.34-.06-.75-.44-.75Zm-9.35,7.33l-2.38,3.07-20.01-.21,2.22-2.86h20.17Z" fill="url(#uuid-a2c2fef5-01c1-40ab-9eb1-5a055f3fbfe6)"/>
  <path d="M237.59,41.49l-5.32,6.28c-.25,.3-.04,.75,.35,.75h22.98c.39,0,.6,.45,.35,.75-.75,.9-1.94,2.29-2.08,2.33-.18,.05-14.85,.01-18.85,0-.39,0-.59-.46-.33-.76l.32-.36c.26-.29,.06-.75-.33-.76l-3.86-.08c-.15,0-.29,.07-.38,.18l-3.03,4.11c-.22,.3,0,.72,.37,.72h28.59c.13,0,.26-.05,.34-.16,1-1.19,7.41-8.79,7.12-8.79-.32,0-24.99-.11-24.99-.11l1.24-1.24c.09-.09,.2-.13,.32-.13l24.65,.1c.13,0,.25-.05,.34-.15l1.88-2.1c.26-.29,.05-.76-.34-.76h-29c-.13,0-.26,.06-.35,.16Z" fill="url(#uuid-888b3e09-da6d-4279-8e8e-0f130346bb95)"/>
  <path d="M298.47,41.9l-.24-.3c-.14-.17-.35-.27-.57-.27h-27.97c-.21,0-.42,.09-.55,.26l-9.58,11.28c-.06,.1-.13,.25-.17,.44-.04,.17-.08,.35-.03,.56,.05,.19,.15,.33,.24,.42,.16,.1,.37,.21,.62,.29,.12,.04,.23,.06,.33,.08h27.81c.22,0,.42-.1,.56-.26l9.56-11.57c.22-.27,.22-.65,0-.92Zm-12.57,9.85h-19.48l5.72-7.62h19.8l-6.04,7.62Z" fill="url(#uuid-ae36f897-1fcc-4673-9ed0-1f18c82ebd8d)"/>
</svg>